# xmcd
#
# Track frame offsets:
# 182
# 16375
# 27000
# 39287
# 51155
# 64560
# 73337
# 87575
# 112350
# 124530
# 158880
# 175962
# 199595
#
# Disc length: 2896 seconds
#
#
# Revision: 1
# Processed by: cddbd v1.5.2PL0 Copyright (c) Steve Scherf et al.
# Submitted via: FreeRIP 2.941 
#
DISCID=b10b4e0d
DTITLE=Boxcar Willie - Live in concert
DYEAR=1988
DGENRE=Country
TTITLE0=The wreck of the old 097
TTITLE1=Bad news
TTITLE2=Freight train blues
TTITLE3=Bumming around
TTITLE4=There's nothing like a good old country song
TTITLE5=Heaven
TTITLE6=He stopped loving her today
TTITLE7=I love the sound of a whistle
TTITLE8=Mule train
TTITLE9=Medley, cold cold heart...
TTITLE10=Wabash cannonball
TTITLE11=Medley, Fireball mail...
TTITLE12=Medley, The lord made a hobo out of me...
EXTD=
EXTT0=
EXTT1=
EXTT2=
EXTT3=
EXTT4=
EXTT5=
EXTT6=
EXTT7=
EXTT8=
EXTT9=
EXTT10=
EXTT11=
EXTT12=
PLAYORDER=
